<svg width="1000" height="1000" viewBox="0 0 1000 1000" fill="none" xmlns="http://www.w3.org/2000/svg">
<path d="M14.5137 28.9607C7.84887 15.6616 17.5184 0 32.3941 0H136.416C144.082 0 151.073 4.38159 154.415 11.2804L563.44 855.596C566.122 861.135 566.106 867.6 563.396 873.125L518.918 963.789C511.632 978.64 490.493 978.73 483.082 963.941L14.5137 28.9607Z" fill="black"/>
<path d="M332.258 3.25183C317.732 3.32257 308.124 18.3653 314.169 31.5736L616.974 693.303C623.922 708.487 645.318 708.974 652.95 694.122L697.966 606.517C700.748 601.102 700.913 594.715 698.414 589.165L511.886 174.906C505.926 161.67 515.607 146.694 530.122 146.694H749.07C763.51 146.694 773.191 161.529 767.377 174.747L706.17 313.886C703.764 319.358 703.93 325.619 706.625 330.955L752.991 422.768C760.405 437.448 781.382 437.404 788.734 422.694L985.456 29.0997C992.121 15.7638 982.377 0.0858154 967.468 0.158447L332.258 3.25183Z" fill="black"/>
</svg>
